<svg width="31" height="31" viewBox="0 0 31 31" fill="none" xmlns="http://www.w3.org/2000/svg">
  <path d="M15.5088 1.4025C7.75345 1.4025 1.44635 7.7096 1.44635 15.465C1.44635 23.2204 7.75345 29.5275 15.5088 29.5275C23.2642 29.5275 29.5713 23.2204 29.5713 15.465C29.5713 7.7096 23.2642 1.4025 15.5088 1.4025ZM15.5088 3.2775C22.2509 3.2775 27.7037 8.72292 27.7037 15.465C27.7037 22.2071 22.2509 27.6598 15.5088 27.6598C8.76678 27.6598 3.32135 22.2071 3.32135 15.465C3.32135 8.72292 8.76678 3.2775 15.5088 3.2775ZM15.496 7.97049C15.2484 7.97485 15.0125 8.07705 14.8399 8.25477C14.6673 8.43249 14.5721 8.67127 14.575 8.91897V9.70816C13.0613 9.99213 11.7662 10.9669 11.7662 12.6562C11.7662 13.828 12.2945 14.7758 13.004 15.3277C13.7135 15.8795 14.5146 16.1242 15.2177 16.3585C15.9208 16.5929 16.5278 16.817 16.873 17.0855C17.2182 17.354 17.3838 17.5799 17.3838 18.283C17.3838 19.8455 13.6412 19.8455 13.6412 18.283C13.6439 18.1581 13.6217 18.034 13.5759 17.9178C13.53 17.8016 13.4614 17.6958 13.3741 17.6065C13.2867 17.5172 13.1824 17.4463 13.0673 17.3978C12.9522 17.3494 12.8286 17.3245 12.7037 17.3245C12.5788 17.3245 12.4551 17.3494 12.34 17.3978C12.2249 17.4463 12.1206 17.5172 12.0333 17.6065C11.946 17.6958 11.8773 17.8016 11.8315 17.9178C11.7856 18.034 11.7634 18.1581 11.7662 18.283C11.7662 19.9709 13.0624 20.9475 14.575 21.2328V22.0183C14.5722 22.1432 14.5944 22.2674 14.6403 22.3835C14.6862 22.4997 14.7548 22.6055 14.8421 22.6948C14.9295 22.7841 15.0337 22.855 15.1489 22.9035C15.264 22.9519 15.3876 22.9769 15.5125 22.9769C15.6374 22.9769 15.761 22.9519 15.8762 22.9035C15.9913 22.855 16.0956 22.7841 16.1829 22.6948C16.2702 22.6055 16.3388 22.4997 16.3847 22.3835C16.4306 22.2674 16.4528 22.1432 16.45 22.0183V21.2328C17.9629 20.9477 19.2607 19.9712 19.2607 18.283C19.2607 17.1111 18.7306 16.1633 18.0211 15.6115C17.3116 15.0596 16.5104 14.8131 15.8073 14.5788C15.1042 14.3444 14.4972 14.1221 14.152 13.8537C13.8069 13.5852 13.6412 13.3593 13.6412 12.6562C13.6412 11.0937 17.3838 11.0937 17.3838 12.6562C17.3838 12.905 17.4827 13.1437 17.6587 13.3197C17.8347 13.4957 18.0734 13.5946 18.3223 13.5946C18.5711 13.5946 18.8098 13.4957 18.9858 13.3197C19.1618 13.1437 19.2607 12.905 19.2607 12.6562C19.2607 10.9694 17.9624 9.99564 16.45 9.70999V8.91897C16.4515 8.79354 16.4278 8.66909 16.3803 8.55299C16.3328 8.43688 16.2625 8.33149 16.1735 8.24305C16.0846 8.1546 15.9788 8.08491 15.8624 8.03809C15.746 7.99128 15.6215 7.96829 15.496 7.97049Z" fill="#FAFAFA"/>
</svg>