<svg width="161" height="49" viewBox="0 0 161 49" fill="none" xmlns="http://www.w3.org/2000/svg">
<g id="Group">
<path id="Vector" d="M0.89563 1.69H18.1552V48.46H0.89563V1.69ZM8.78692 37.26H10.3166V13.93H8.78692V37.26ZM50.9969 2.72V14.18H47.7264V16.55H36.6702V14.18H33.0199V16.55H22.238V14.18H19.5161V2.72H22.238V0.809998H33.0199V2.72H36.6702V0.809998H47.7264V2.72H50.9969ZM19.5161 17.8H50.9969V48.82H19.5161V17.8ZM29.5385 26.62V30.44H31.5007V26.62H29.5385ZM29.5385 40.05H31.5007V36.23H29.5385V40.05ZM40.2677 26.62H38.3054V30.44H40.2677V26.62ZM40.2677 40.05V36.23H38.3054V40.05H40.2677Z" fill="#4527A0"/>
<path id="Vector_2" d="M105.782 35.86V48.61H55.354V35.86H60.5234L58.0231 19.91V18H74.8501L77.1922 35.86H83.4588L85.8009 18H102.628V19.91L100.117 35.86H105.782ZM105.402 16.3H55.7865V3.09H70.8728V0.410004H90.2634V3.09H105.402V16.3Z" fill="#4527A0"/>
<path id="Vector_3" d="M126.798 37.15H130.775V46.08H126.798V48.87H114.106V46.08H110.076V37.15H114.106V35.34H110.076V13.45H114.106V11.69H110.076V3.07001H114.106V1.32001H126.798V3.07001H130.722V11.69H126.798V13.45H130.722V35.34H126.798V37.15ZM122.229 20.48H118.421V21.93H122.229V20.48ZM118.41 28.17H122.219V26.72H118.41V28.17ZM132.083 15.47H145.049V48.77H131.925V43.97L134.815 42.99V41.24L133.349 41.81H132.041V34.48L134.815 33.55V32.78L132.041 32.16V25.66H133.349L134.815 26.02V24.16H132.094V15.49L132.083 15.47ZM160.019 5.77001V14.18H150.324L146.948 12.12H145.038L141.937 14.18H131.967V5.77001L140.787 0.76001H151.189L160.009 5.77001H160.019ZM146.188 15.47H159.966V48.77H146.673V43.97L149.068 42.99V41.6L147.539 42.17H146.23V34.48L149.058 33.55V32.78L146.167 32.16V25.66H147.528L149.058 26.02V24.16H146.167V15.49L146.188 15.47Z" fill="#4527A0"/>
</g>
</svg>
